<svg width="207" height="23" viewBox="0 0 207 23" fill="none" xmlns="http://www.w3.org/2000/svg">
<g clip-path="url(#clip0_74_3329)">
<path d="M18.5698 14.8809C18.5174 14.7404 13.8749 5.50221 13.8051 5.36171C13.5607 4.76456 13.1244 4.25523 12.5484 3.90397C11.0998 3.06094 9.24979 3.5527 8.41204 5.01044C7.83608 6.01154 7.87099 7.18827 8.42949 8.11911C8.48185 8.24206 12.9149 17.0939 13.0022 17.2344C13.0546 17.3749 13.1244 17.4978 13.1942 17.6383C13.4385 18.2355 13.8749 18.7448 14.4508 19.0961C15.8994 19.9391 17.7495 19.4649 18.5872 18.0071C19.1806 17.0061 19.1283 15.8118 18.5698 14.8809Z" fill="#0EF387"/>
<path d="M13.212 8.62843C13.7182 8.08397 14.0323 7.34632 14.0323 6.53842C14.0323 4.86992 12.6884 3.5 11.0129 3.5C9.98319 3.5 9.07563 4.00933 8.53458 4.79967C8.42986 4.90505 0.907563 14.2486 0.820297 14.3716C0.314156 14.916 0 15.6537 0 16.4616C0 18.1476 1.36134 19.5 3.01939 19.5C4.04913 19.5 4.95669 18.9907 5.49774 18.2003C5.60246 18.0774 13.1422 8.75137 13.212 8.62843Z" fill="#FAFAFA"/>
<path d="M26.1797 8.62843C26.6858 8.08397 27 7.34632 27 6.53842C27 4.85236 25.6386 3.5 23.9806 3.5C22.9508 3.5 22.0433 4.00933 21.5022 4.79967C21.3975 4.90505 13.8578 14.2486 13.7705 14.3716C13.2644 14.916 12.9502 15.6537 12.9502 16.4616C12.9502 18.1476 14.3115 19.5 15.9696 19.5C16.9993 19.5 17.9069 18.9907 18.4479 18.2003C18.5701 18.0774 26.0924 8.75137 26.1797 8.62843Z" fill="#FAFAFA"/>
</g>
<path d="M36.188 4.95H46.196V7.65H39.266V9.936H45.818V12.654H39.266V15.282H46.196V18H36.188V4.95ZM51.2735 11.358L46.5935 4.95H50.2115L53.0915 8.892L55.9895 4.95H59.5535L54.8555 11.304L59.7695 18H56.1515L53.0375 13.77L49.9235 18H46.3775L51.2735 11.358ZM65.4158 4.95C66.3158 4.95 67.1018 5.016 67.7738 5.148C68.4578 5.268 69.0758 5.484 69.6278 5.796C70.1918 6.096 70.6178 6.534 70.9058 7.11C71.1938 7.674 71.3378 8.37 71.3378 9.198C71.3378 10.026 71.1938 10.728 70.9058 11.304C70.6178 11.88 70.1918 12.324 69.6278 12.636C69.0758 12.948 68.4578 13.17 67.7738 13.302C67.1018 13.422 66.3158 13.482 65.4158 13.482H63.4718V18H60.3938V4.95H65.4158ZM63.4718 7.542V10.89H65.5058C66.3218 10.89 66.9518 10.77 67.3958 10.53C67.8518 10.29 68.0798 9.846 68.0798 9.198C68.0798 8.562 67.8518 8.13 67.3958 7.902C66.9518 7.662 66.3218 7.542 65.5058 7.542H63.4718ZM72.2154 4.95H82.2234V7.65H75.2934V9.936H81.8454V12.654H75.2934V15.282H82.2234V18H72.2154V4.95ZM91.999 18L86.761 9V18H83.791V4.95H87.535L92.773 13.95V4.95H95.743V18H91.999ZM102.312 7.2C101.7 7.2 101.202 7.314 100.818 7.542C100.434 7.758 100.242 8.064 100.242 8.46C100.242 8.772 100.374 9.048 100.638 9.288C100.914 9.516 101.286 9.678 101.754 9.774L103.536 10.134C104.076 10.242 104.52 10.344 104.868 10.44C105.216 10.524 105.63 10.668 106.11 10.872C106.59 11.076 106.968 11.304 107.244 11.556C107.532 11.796 107.778 12.126 107.982 12.546C108.198 12.954 108.306 13.422 108.306 13.95C108.306 15.246 107.754 16.284 106.65 17.064C105.558 17.844 104.286 18.234 102.834 18.234C101.166 18.234 99.8036 17.838 98.7476 17.046C97.7036 16.254 97.0616 15.156 96.8216 13.752H99.8816C100.218 15.084 101.226 15.75 102.906 15.75C103.518 15.75 104.04 15.636 104.472 15.408C104.916 15.18 105.138 14.82 105.138 14.328C105.138 13.932 104.928 13.614 104.508 13.374C104.1 13.134 103.5 12.93 102.708 12.762L101.124 12.438C98.4236 11.862 97.0736 10.596 97.0736 8.64C97.0736 7.8 97.3496 7.074 97.9016 6.462C98.4656 5.85 99.1436 5.412 99.9356 5.148C100.74 4.872 101.592 4.734 102.492 4.734C103.884 4.734 105.084 5.064 106.092 5.724C107.1 6.372 107.712 7.374 107.928 8.73H104.886C104.73 8.25 104.424 7.878 103.968 7.614C103.524 7.338 102.972 7.2 102.312 7.2ZM109.491 4.95H119.499V7.65H112.569V9.936H119.121V12.654H112.569V15.282H119.499V18H109.491V4.95ZM124.144 7.65H119.968V4.95H131.434V7.65H127.24V18H124.144V7.65ZM137.527 13.086H135.439V18H132.361V4.95H137.383C138.103 4.95 138.745 4.986 139.309 5.058C139.873 5.13 140.407 5.256 140.911 5.436C141.427 5.616 141.853 5.856 142.189 6.156C142.537 6.456 142.807 6.846 142.999 7.326C143.203 7.794 143.305 8.346 143.305 8.982C143.305 10.722 142.453 11.922 140.749 12.582L143.971 18H140.353L137.527 13.086ZM135.439 7.542V10.494H137.473C138.301 10.494 138.937 10.392 139.381 10.188C139.825 9.972 140.047 9.582 140.047 9.018C140.047 8.454 139.819 8.07 139.363 7.866C138.919 7.65 138.289 7.542 137.473 7.542H135.439ZM148.522 4.95H151.906L156.838 18H153.49L152.698 15.678H147.658L146.884 18H143.608L148.522 4.95ZM148.504 13.176H151.87L150.196 8.208L148.504 13.176ZM169.028 13.14C168.788 14.664 168.104 15.894 166.976 16.83C165.848 17.766 164.462 18.234 162.818 18.234C160.79 18.234 159.194 17.628 158.03 16.416C156.866 15.204 156.284 13.554 156.284 11.466C156.284 9.402 156.878 7.764 158.066 6.552C159.266 5.34 160.88 4.734 162.908 4.734C164.516 4.734 165.866 5.208 166.958 6.156C168.05 7.092 168.71 8.316 168.938 9.828H165.914C165.746 8.976 165.38 8.34 164.816 7.92C164.252 7.488 163.58 7.272 162.8 7.272C161.852 7.272 161.072 7.65 160.46 8.406C159.848 9.15 159.542 10.17 159.542 11.466C159.542 12.798 159.848 13.836 160.46 14.58C161.072 15.324 161.864 15.696 162.836 15.696C163.604 15.696 164.282 15.498 164.87 15.102C165.458 14.706 165.836 14.052 166.004 13.14H169.028ZM173.294 10.116L178.028 4.95H181.79L176.966 10.152L182.042 18H178.334L174.806 12.492L173.294 14.148V18H170.216V4.95H173.294V10.116ZM182.688 4.95H192.696V7.65H185.766V9.936H192.318V12.654H185.766V15.282H192.696V18H182.688V4.95ZM199.43 13.086H197.342V18H194.264V4.95H199.286C200.006 4.95 200.648 4.986 201.212 5.058C201.776 5.13 202.31 5.256 202.814 5.436C203.33 5.616 203.756 5.856 204.092 6.156C204.44 6.456 204.71 6.846 204.902 7.326C205.106 7.794 205.208 8.346 205.208 8.982C205.208 10.722 204.356 11.922 202.652 12.582L205.874 18H202.256L199.43 13.086ZM197.342 7.542V10.494H199.376C200.204 10.494 200.84 10.392 201.284 10.188C201.728 9.972 201.95 9.582 201.95 9.018C201.95 8.454 201.722 8.07 201.266 7.866C200.822 7.65 200.192 7.542 199.376 7.542H197.342Z" fill="#FAFAFA"/>
<defs>
<clipPath id="clip0_74_3329">
<rect width="27" height="16" fill="white" transform="translate(0 3.5)"/>
</clipPath>
</defs>
</svg>
